<?xml version="1.0" encoding="UTF-8" standalone="no"?>
<svg width="40px" height="40px" viewBox="0 0 40 40" version="1.1" xmlns="http://www.w3.org/2000/svg" xmlns:xlink="http://www.w3.org/1999/xlink">
    <!-- Generator: Sketch 40.3 (33839) - http://www.bohemiancoding.com/sketch -->
    <title>accept</title>
    <desc>Created with Sketch.</desc>
    <defs></defs>
    <g id="Inbox" stroke="none" stroke-width="1" fill="none" fill-rule="evenodd">
        <g id="iPhone" transform="translate(-303.000000, -391.000000)">
            <g id="pages">
                <g id="inbox">
                    <g id="cards" transform="translate(16.000000, 96.000000)">
                        <g id="card1">
                            <g id="card1Buttons" transform="translate(16.000000, 295.000000)">
                                <g id="card1Accept" transform="translate(271.000000, 0.000000)">
                                    <circle id="mask" fill="#FFFFFF" opacity="0.100000001" cx="20" cy="20" r="20"></circle>
                                    <path d="M29.0459,8.35981477 C28.1429,7.72881477 26.8889,7.94981477 26.2559,8.84981477 L17.3539,21.5488148 L12.4439,18.1048148 C11.5419,17.4728148 10.2879,17.6938148 9.65490001,18.5938148 L7.36190001,21.8698148 C6.72890001,22.7708148 6.94790001,24.0248148 7.84990001,24.6538148 L14.4009,29.2478148 L17.6739,31.5428148 C18.1279,31.8588148 18.6669,31.9608148 19.1739,31.8708148 C19.6779,31.7828148 20.1509,31.5018148 20.4669,31.0518148 L32.8069,13.4388148 C33.4399,12.5388148 33.2169,11.2848148 32.3149,10.6538148 L29.0459,8.35981477 L29.0459,8.35981477 Z" id="icon" fill="#82C91E"></path>
                                </g>
                            </g>
                        </g>
                    </g>
                </g>
            </g>
        </g>
    </g>
</svg>