<?xml version="1.0" encoding="UTF-8" standalone="no"?>
<svg width="40px" height="40px" viewBox="0 0 40 40" version="1.1" xmlns="http://www.w3.org/2000/svg" xmlns:xlink="http://www.w3.org/1999/xlink">
    <!-- Generator: Sketch 40.3 (33839) - http://www.bohemiancoding.com/sketch -->
    <title>decline</title>
    <desc>Created with Sketch.</desc>
    <defs></defs>
    <g id="Inbox" stroke="none" stroke-width="1" fill="none" fill-rule="evenodd">
        <g id="iPhone" transform="translate(-32.000000, -391.000000)">
            <g id="pages">
                <g id="inbox">
                    <g id="cards" transform="translate(16.000000, 96.000000)">
                        <g id="card1">
                            <g id="card1Buttons" transform="translate(16.000000, 295.000000)">
                                <g id="card1Decline">
                                    <circle id="mask" fill="#FFFFFF" cx="20" cy="20" r="20"></circle>
                                    <path d="M25.84875,20.1885 L30.79775,15.2375 C31.57575,14.4595 31.57575,13.1875 30.79775,12.4095 L27.96575,9.5845 C27.18875,8.8055 25.91475,8.8065 25.13775,9.5845 L20.19275,14.5325 L15.24375,9.5835 C14.46575,8.8055 13.19275,8.8055 12.41475,9.5835 L9.58275,12.4105 C8.80575,13.1885 8.80575,14.4605 9.58275,15.2385 L14.53675,20.1895 L9.58675,25.1395 C8.80975,25.9175 8.80975,27.1885 9.58675,27.9675 L12.41475,30.7935 C13.19275,31.5715 14.46575,31.5715 15.24375,30.7935 L20.19275,25.8445 L25.14175,30.7935 C25.91875,31.5715 27.19275,31.5715 27.96975,30.7935 L30.79775,27.9655 C31.57575,27.1885 31.57575,25.9155 30.79775,25.1375 L25.84875,20.1885 L25.84875,20.1885 Z" id="icon" fill="#FA5252"></path>
                                </g>
                            </g>
                        </g>
                    </g>
                </g>
            </g>
        </g>
    </g>
</svg>