<?xml version="1.0" encoding="UTF-8" standalone="no"?>
<svg width="16px" height="16px" viewBox="0 0 16 16" version="1.1" xmlns="http://www.w3.org/2000/svg" xmlns:xlink="http://www.w3.org/1999/xlink">
    <!-- Generator: Sketch 40.3 (33839) - http://www.bohemiancoding.com/sketch -->
    <title>location</title>
    <desc>Created with Sketch.</desc>
    <defs></defs>
    <g id="Inbox" stroke="none" stroke-width="1" fill="none" fill-rule="evenodd">
        <g id="iPhone" transform="translate(-32.000000, -214.000000)">
            <g id="pages">
                <g id="inbox">
                    <g id="cards" transform="translate(16.000000, 96.000000)">
                        <g id="card1">
                            <g id="card1Details*">
                                <g id="location" transform="translate(16.000000, 116.000000)">
                                    <g id="Location-16x16" transform="translate(0.000000, 2.000000)">
                                        <g>
                                            <rect id="Rectangle-4" x="0" y="0" width="16" height="16"></rect>
                                            <path d="M8,8 C6.8955,8 6,7.1045 6,6 C6,4.8955 6.8955,4 8,4 C9.1045,4 10,4.8955 10,6 C10,7.1045 9.1045,8 8,8 M8.0005,0 C4,0 2,3 2,6 C2,9 8.0005,16 8.0005,16 C8.0005,16 14,9 14,6 C14,3 12,0 8.0005,0" id="location" fill="#ADB5BD"></path>
                                        </g>
                                    </g>
                                </g>
                            </g>
                        </g>
                    </g>
                </g>
            </g>
        </g>
    </g>
</svg>