<?xml version="1.0" encoding="UTF-8" standalone="no"?>
<svg width="16px" height="16px" viewBox="0 0 16 16" version="1.1" xmlns="http://www.w3.org/2000/svg" xmlns:xlink="http://www.w3.org/1999/xlink">
    <!-- Generator: Sketch 40.3 (33839) - http://www.bohemiancoding.com/sketch -->
    <title>time</title>
    <desc>Created with Sketch.</desc>
    <defs></defs>
    <g id="Inbox" stroke="none" stroke-width="1" fill="none" fill-rule="evenodd">
        <g id="iPhone" transform="translate(-32.000000, -190.000000)">
            <g id="pages">
                <g id="inbox">
                    <g id="cards" transform="translate(16.000000, 96.000000)">
                        <g id="card1">
                            <g id="card1Details*">
                                <g id="time" transform="translate(11.000000, 92.000000)">
                                    <g id="Clock-16x16" transform="translate(5.000000, 2.000000)">
                                        <g id="Location-16x16-Copy">
                                            <rect id="Rectangle-4" x="0" y="0" width="16" height="16"></rect>
                                            <path d="M8,14 C4.6915,14 2,11.3085 2,8 C2,4.6915 4.6915,2 8,2 C11.3085,2 14,4.6915 14,8 C14,11.3085 11.3085,14 8,14 M8,0 C3.58,0 0,3.582 0,8 C0,12.418 3.58,16 8,16 C12.418,16 16,12.418 16,8 C16,3.582 12.418,0 8,0 M8,3.375 C7.6775,3.375 7.41,3.617 7.379,3.9375 L7.0155,7.5705 L3.9375,7.878 C3.617,7.909 3.375,8.177 3.375,8.5 C3.375,8.8225 3.617,9.09 3.9375,9.122 L8.7385,9.624 L8.75,9.625 C8.957,9.625 9.125,9.456 9.125,9.2385 L8.621,3.9375 C8.59,3.617 8.3225,3.375 8,3.375" id="clock" fill="#ADB5BD"></path>
                                        </g>
                                    </g>
                                </g>
                            </g>
                        </g>
                    </g>
                </g>
            </g>
        </g>
    </g>
</svg>