<?xml version="1.0" encoding="UTF-8" standalone="no"?>
<svg width="24px" height="24px" viewBox="0 0 24 24" version="1.1" xmlns="http://www.w3.org/2000/svg" xmlns:xlink="http://www.w3.org/1999/xlink">
    <!-- Generator: Sketch 40.3 (33839) - http://www.bohemiancoding.com/sketch -->
    <title>events</title>
    <desc>Created with Sketch.</desc>
    <defs></defs>
    <g id="Inbox" stroke="none" stroke-width="1" fill="none" fill-rule="evenodd">
        <g id="iPhone" transform="translate(-105.000000, -619.000000)" fill="#343A40">
            <g id="tabBar" transform="translate(0.000000, 595.000000)">
                <g id="tabs">
                    <g id="eventsTab" transform="translate(78.000000, 0.000000)">
                        <g id="icon" transform="translate(27.000000, 24.000000)">
                            <path d="M22.4,7.2 L1.6,7.2 L1.6,4.8 C1.6,4.3592 1.9584,4 2.4,4 L4.8,4 L4.8,4.8 C4.8,5.2416 5.1576,5.6 5.5992,5.6 C6.0408,5.6 6.3992,5.2416 6.3992,4.8 L6.3992,4 L17.6,4 L17.6,4.8 C17.6,5.2416 17.9576,5.6 18.3992,5.6 C18.8408,5.6 19.1992,5.2416 19.1992,4.8 L19.1992,4 L21.6,4 C22.0416,4 22.4,4.3592 22.4,4.8 L22.4,7.2 L22.4,7.2 Z M22.4,14.4 L15.9992,14.4 L15.9992,8 L22.4,8 L22.4,14.4 L22.4,14.4 Z M22.4,21.6 C22.4,22.0408 22.0416,22.4 21.6,22.4 L15.9992,22.4 L15.9992,15.2 L22.4,15.2 L22.4,21.6 L22.4,21.6 Z M15.2,14.4 L8.7992,14.4 L8.7992,8 L15.2,8 L15.2,14.4 L15.2,14.4 Z M15.2,22.4 L8.7992,22.4 L8.7992,15.2 L15.2,15.2 L15.2,22.4 L15.2,22.4 Z M8,14.4 L1.6,14.4 L1.6,8 L8,8 L8,14.4 L8,14.4 Z M8,22.4 L2.4,22.4 C1.9584,22.4 1.6,22.0408 1.6,21.6 L1.6,15.2 L8,15.2 L8,22.4 L8,22.4 Z M21.6,2.4 L19.1992,2.4 L19.1992,0.8 C19.1992,0.3584 18.8408,0 18.3992,0 C17.9576,0 17.6,0.3584 17.6,0.8 L17.6,2.4 L6.3992,2.4 L6.3992,0.8 C6.3992,0.3584 6.0408,0 5.5992,0 C5.1576,0 4.8,0.3584 4.8,0.8 L4.8,2.4 L2.4,2.4 C1.0768,2.4 0,3.4768 0,4.8 L0,21.6 C0,22.9232 1.0768,24 2.4,24 L21.6,24 C22.9232,24 24,22.9232 24,21.6 L24,4.8 C24,3.4768 22.9232,2.4 21.6,2.4 L21.6,2.4 L21.6,2.4 Z"></path>
                        </g>
                    </g>
                </g>
            </g>
        </g>
    </g>
</svg>