<?xml version="1.0" encoding="UTF-8" standalone="no"?>
<svg width="24px" height="24px" viewBox="0 0 24 24" version="1.1" xmlns="http://www.w3.org/2000/svg" xmlns:xlink="http://www.w3.org/1999/xlink">
    <!-- Generator: Sketch 40.3 (33839) - http://www.bohemiancoding.com/sketch -->
    <title>people</title>
    <desc>Created with Sketch.</desc>
    <defs></defs>
    <g id="Inbox" stroke="none" stroke-width="1" fill="none" fill-rule="evenodd">
        <g id="iPhone" transform="translate(-246.000000, -619.000000)">
            <g id="tabBar" transform="translate(0.000000, 595.000000)">
                <g id="tabs">
                    <g id="peopleTab" transform="translate(219.000000, 0.000000)">
                        <rect id="mask" x="0" y="0" width="78" height="72"></rect>
                        <path d="M42,27.65625 C42,26.4675 43.0095,25.5 44.25,25.5 C45.4905,25.5 46.5,26.4675 46.5,27.65625 L46.5,30.09375 C46.5,31.2825 45.4905,32.25 44.25,32.25 C43.0095,32.25 42,31.2825 42,30.09375 L42,27.65625 L42,27.65625 Z M44.25,33.75 C46.3125,33.75 48,32.1045 48,30.09375 L48,27.65625 C48,25.6455 46.3125,24 44.25,24 C42.1875,24 40.5,25.6455 40.5,27.65625 L40.5,30.09375 C40.5,32.1045 42.1875,33.75 44.25,33.75 L44.25,33.75 L44.25,33.75 Z M32.997,31.40625 C32.997,30.2175 34.0065,29.25 35.247,29.25 C36.48825,29.25 37.497,30.2175 37.497,31.40625 L37.497,33.84375 C37.497,35.0325 36.48825,36 35.247,36 C34.0065,36 32.997,35.0325 32.997,33.84375 L32.997,31.40625 L32.997,31.40625 Z M35.247,37.5 C37.3095,37.5 38.997,35.8545 38.997,33.84375 L38.997,31.40625 C38.997,29.3955 37.3095,27.75 35.247,27.75 C33.1845,27.75 31.497,29.3955 31.497,31.40625 L31.497,33.84375 C31.497,35.8545 33.1845,37.5 35.247,37.5 L35.247,37.5 L35.247,37.5 Z M41.0565,41.25 C40.53975,40.77 39.95325,40.3575 39.318,40.017 L39.33075,39.984 C40.09575,38.04975 42.07275,36.75 44.25,36.75 C46.99125,36.75 49.248,38.73225 49.4805,41.25 L41.0565,41.25 L41.0565,41.25 Z M28.50375,46.5 C28.62675,43.17225 31.60575,40.5 35.25,40.5 C38.89425,40.5 41.87325,43.17225 41.99625,46.5 L28.50375,46.5 L28.50375,46.5 Z M44.25,35.25 C41.367,35.25 38.8995,36.99675 37.9365,39.43125 C37.092,39.15675 36.1905,39 35.25,39 C30.71175,39 27,42.47175 27,46.7145 C27,47.421 27.618,48 28.377,48 L42.126,48 C42.879,48 43.5,47.421 43.5,46.7145 C43.5,45.2655 43.059,43.91175 42.3075,42.75 L49.87575,42.75 C50.49225,42.75 51,42.26775 51,41.679 C51,38.14275 47.961,35.25 44.25,35.25 L44.25,35.25 L44.25,35.25 Z" id="icon" fill="#343A40"></path>
                    </g>
                </g>
            </g>
        </g>
    </g>
</svg>