<?xml version="1.0" encoding="UTF-8" standalone="no"?>
<svg width="24px" height="24px" viewBox="0 0 24 24" version="1.1" xmlns="http://www.w3.org/2000/svg" xmlns:xlink="http://www.w3.org/1999/xlink">
    <!-- Generator: Sketch 40.3 (33839) - http://www.bohemiancoding.com/sketch -->
    <title>plus</title>
    <desc>Created with Sketch.</desc>
    <defs>
        <filter x="-50%" y="-50%" width="200%" height="200%" filterUnits="objectBoundingBox" id="filter-1">
            <feOffset dx="0" dy="1" in="SourceAlpha" result="shadowOffsetOuter1"></feOffset>
            <feGaussianBlur stdDeviation="4" in="shadowOffsetOuter1" result="shadowBlurOuter1"></feGaussianBlur>
            <feColorMatrix values="0 0 0 0 0   0 0 0 0 0   0 0 0 0 0  0 0 0 0.14733356 0" type="matrix" in="shadowBlurOuter1" result="shadowMatrixOuter1"></feColorMatrix>
            <feMerge>
                <feMergeNode in="shadowMatrixOuter1"></feMergeNode>
                <feMergeNode in="SourceGraphic"></feMergeNode>
            </feMerge>
        </filter>
    </defs>
    <g id="Inbox" stroke="none" stroke-width="1" fill="none" fill-rule="evenodd">
        <g id="iPhone" transform="translate(-176.000000, -619.000000)" fill="#FFFFFF">
            <g id="addButton" filter="url(#filter-1)" transform="translate(160.000000, 603.000000)">
                <g id="addIcon" transform="translate(16.000000, 16.000000)">
                    <path d="M23.9963077,10.1538462 C23.9963077,9.13661538 23.1636923,8.30769231 22.1501538,8.30769231 L15.6923077,8.30953846 L15.6923077,1.84984615 C15.6923077,0.832615385 14.8633846,0.00369230769 13.8461538,0.00369230769 L10.1538462,0 C9.13661538,0 8.30769231,0.828923077 8.30769231,1.84615385 L8.30769231,8.31138462 L1.84615385,8.31138462 C0.832615385,8.31138462 0.00369230769,9.14030769 0,10.1575385 L0.00369230769,13.8461538 C0.00369230769,14.8633846 0.832615385,15.6923077 1.84984615,15.6923077 L8.30769231,15.6923077 L8.30769231,22.1538462 C8.30769231,23.1692308 9.14030769,24 10.1538462,24 L13.8461538,24 C14.8633846,24 15.6923077,23.1692308 15.6923077,22.1538462 L15.6923077,15.6923077 L22.1538462,15.6923077 C23.1710769,15.6923077 24,14.8615385 24,13.8461538 L23.9963077,10.1538462 L23.9963077,10.1538462 Z" id="icon"></path>
                </g>
            </g>
        </g>
    </g>
</svg>