<?xml version="1.0" encoding="UTF-8" standalone="no"?>
<svg width="24px" height="24px" viewBox="0 0 24 24" version="1.1" xmlns="http://www.w3.org/2000/svg" xmlns:xlink="http://www.w3.org/1999/xlink">
    <!-- Generator: Sketch 40.3 (33839) - http://www.bohemiancoding.com/sketch -->
    <title>stats</title>
    <desc>Created with Sketch.</desc>
    <defs></defs>
    <g id="Inbox" stroke="none" stroke-width="1" fill="none" fill-rule="evenodd">
        <g id="iPhone" transform="translate(-324.000000, -619.000000)">
            <g id="tabBar" transform="translate(0.000000, 595.000000)">
                <g id="tabs">
                    <g id="statsTab" transform="translate(297.000000, 0.000000)">
                        <rect id="mask" x="0" y="0" width="78" height="72"></rect>
                        <path d="M49.5,46.5 L46.5,46.5 L46.5,31.5 L49.5,31.5 L49.5,46.5 L49.5,46.5 Z M49.5,30 L46.5,30 C45.675,30 45,30.675 45,31.5 L45,46.5 C45,47.325 45.675,48 46.5,48 L49.5,48 C50.325,48 51,47.325 51,46.5 L51,31.5 C51,30.675 50.325,30 49.5,30 L49.5,30 L49.5,30 Z M31.5,46.5 L28.5,46.5 L28.5,36 L31.5,36 L31.5,46.5 L31.5,46.5 Z M31.5,34.5 L28.5,34.5 C27.675,34.5 27,35.175 27,36 L27,46.5 C27,47.325 27.675,48 28.5,48 L31.5,48 C32.325,48 33,47.325 33,46.5 L33,36 C33,35.175 32.325,34.5 31.5,34.5 L31.5,34.5 L31.5,34.5 Z M40.5,46.5 L37.5,46.5 L37.5,25.5 L40.5,25.5 L40.5,46.5 L40.5,46.5 Z M40.5,24 L37.5,24 C36.675,24 36,24.675 36,25.5 L36,46.5 C36,47.325 36.675,48 37.5,48 L40.5,48 C41.325,48 42,47.325 42,46.5 L42,25.5 C42,24.675 41.325,24 40.5,24 L40.5,24 L40.5,24 Z" id="icon" fill="#343A40"></path>
                    </g>
                </g>
            </g>
        </g>
    </g>
</svg>